<svg width="24" height="25" viewBox="0 0 24 25" fill="none" xmlns="http://www.w3.org/2000/svg">
<path fill-rule="evenodd" clip-rule="evenodd" d="M9.429 9.1963H13.143V11.0463C13.678 9.9823 15.05 9.0263 17.111 9.0263C21.062 9.0263 22 11.1443 22 15.0303V22.2273H18V15.9153C18 13.7023 17.465 12.4543 16.103 12.4543C14.214 12.4543 13.429 13.7993 13.429 15.9143V22.2273H9.429V9.1963ZM2.57 22.0573H6.57V9.0263H2.57V22.0573ZM7.143 4.7773C7.14315 5.11257 7.07666 5.44453 6.94739 5.75388C6.81812 6.06323 6.62865 6.34381 6.39 6.5793C5.9064 7.05992 5.25181 7.32895 4.57 7.3273C3.88939 7.32684 3.23631 7.05849 2.752 6.5803C2.51421 6.34401 2.32539 6.06312 2.19634 5.75373C2.0673 5.44433 2.00058 5.11252 2 4.7773C2 4.1003 2.27 3.4523 2.753 2.9743C3.23689 2.49545 3.89024 2.227 4.571 2.2273C5.253 2.2273 5.907 2.4963 6.39 2.9743C6.872 3.4523 7.143 4.1003 7.143 4.7773Z" fill="#012A51"/>
</svg>
