<svg width="20" height="20" viewBox="0 0 20 20" fill="none" xmlns="http://www.w3.org/2000/svg">
<path fill-rule="evenodd" clip-rule="evenodd" d="M7.29303 14.7069C7.10556 14.5194 7.00024 14.2651 7.00024 13.9999C7.00024 13.7348 7.10556 13.4804 7.29303 13.2929L10.586 9.99992L7.29303 6.70692C7.11087 6.51832 7.01008 6.26571 7.01236 6.00352C7.01463 5.74132 7.1198 5.49051 7.30521 5.3051C7.49062 5.11969 7.74143 5.01452 8.00363 5.01224C8.26583 5.00997 8.51843 5.11076 8.70703 5.29292L12.707 9.29292C12.8945 9.48045 12.9998 9.73475 12.9998 9.99992C12.9998 10.2651 12.8945 10.5194 12.707 10.7069L8.70703 14.7069C8.5195 14.8944 8.26519 14.9997 8.00003 14.9997C7.73487 14.9997 7.48056 14.8944 7.29303 14.7069Z" fill="#652D90"/>
</svg>
