<svg width="32" height="32" viewBox="0 0 32 32" fill="none" xmlns="http://www.w3.org/2000/svg">
<path fill-rule="evenodd" clip-rule="evenodd" d="M11.7713 19.3387C11.5693 19.3507 11.456 19.38 11.4133 19.3987C10.9906 19.592 9.60331 20.0954 8.66665 20.4307V25.164C9.14665 25.142 9.68665 25.1234 9.98998 25.1354C11.338 25.1894 12.356 25.5034 13.3073 25.8054L13.3913 25.832C14.31 26.124 15.1673 26.3967 16.2946 26.482C16.6406 26.5087 16.9426 26.5387 17.2253 26.5674C17.5612 26.6046 17.898 26.6332 18.2353 26.6534C18.8086 26.6827 19.2486 26.6514 19.6046 26.5207C20.0446 26.3594 21.6313 25.6174 23.2246 24.8087C23.9602 24.4384 24.6875 24.0519 25.406 23.6494C25.6692 23.5021 25.9282 23.3474 26.1826 23.1854C26.4006 23.0434 26.506 22.9587 26.5346 22.9294C26.6533 22.8074 26.738 22.4707 26.5826 22.1674C26.4746 21.956 26.1733 21.6467 25.3266 21.7867C24.3466 21.9487 23.1813 22.4267 22.0366 22.896C21.4813 23.124 20.9286 23.35 20.44 23.5134C19.9706 23.67 19.4666 23.8027 19.0346 23.7767C18.408 23.7387 17.304 23.5734 16.388 23.424C15.8624 23.3383 15.3375 23.2485 14.8133 23.1547L14.7113 23.1367L14.676 23.13L14.8033 21.8074L18.3766 21.8507C18.38 21.8507 18.3846 21.8507 18.3913 21.8494C18.4153 21.8474 18.4633 21.8414 18.5326 21.8234C18.6686 21.788 18.8926 21.7054 19.17 21.5067C19.266 21.438 19.3833 21.3187 19.4893 21.164C19.576 21.0374 19.6406 20.91 19.6786 20.802C19.1921 20.7826 18.7083 20.7191 18.2333 20.612C18.0042 20.5619 17.777 20.5036 17.552 20.4374L17.5213 20.428L13.144 19.446H13.1426C13.0731 19.4336 13.0033 19.4225 12.9333 19.4127C12.7523 19.3861 12.5704 19.3655 12.388 19.3507C12.1829 19.3332 11.9769 19.3292 11.7713 19.3387ZM13.3986 18.1374L13.4106 18.1394L17.8693 19.1394L17.8966 19.1487L17.9046 19.1514L17.9353 19.1607L18.0606 19.1967C18.1706 19.2274 18.3293 19.268 18.518 19.3094C18.9006 19.3934 19.3833 19.4707 19.834 19.4707C20.25 19.4707 20.68 19.626 20.91 20.0474C21.1073 20.4087 21.0613 20.806 20.9873 21.0807C20.8953 21.4234 20.7046 21.7834 20.4626 22.0894C20.8205 21.9519 21.1766 21.8097 21.5306 21.6627L21.6126 21.6294C22.6946 21.1847 23.9773 20.658 25.1086 20.4714C26.402 20.2574 27.3426 20.7267 27.7693 21.5594C28.1493 22.3007 28.0613 23.2734 27.4893 23.8594C27.346 24.0067 27.1273 24.1614 26.908 24.3034C26.6315 24.4803 26.3501 24.6492 26.064 24.81C25.3275 25.2225 24.582 25.6186 23.828 25.998C22.2473 26.8 20.59 27.58 20.0633 27.7727C19.4526 27.996 18.7966 28.0174 18.1666 27.9847C17.7864 27.9611 17.4068 27.9288 17.028 27.888C16.7505 27.8593 16.4727 27.8338 16.1946 27.8114C14.9093 27.714 13.9226 27.4 13.0146 27.1114L12.904 27.076C11.966 26.778 11.0933 26.514 9.93665 26.4674C9.54331 26.452 8.56531 26.5027 8.03865 26.5334L7.33331 26.5747V19.49L7.77665 19.3327C8.67998 19.0114 10.4313 18.3814 10.86 18.186C11.128 18.064 11.438 18.0227 11.6946 18.0074C11.9602 17.9944 12.2264 17.9991 12.4913 18.0214C12.7878 18.045 13.083 18.0824 13.376 18.1334L13.392 18.136L13.396 18.1367L13.3986 18.1374Z" fill="#333333"/>
<path fill-rule="evenodd" clip-rule="evenodd" d="M4 19.3334C4 18.9798 4.14048 18.6406 4.39052 18.3906C4.64057 18.1405 4.97971 18 5.33333 18H7.33333C7.68696 18 8.02609 18.1405 8.27614 18.3906C8.52619 18.6406 8.66667 18.9798 8.66667 19.3334V26.664C8.66667 27.0177 8.52619 27.3568 8.27614 27.6069C8.02609 27.8569 7.68696 27.9974 7.33333 27.9974H5.33333C4.97971 27.9974 4.64057 27.8569 4.39052 27.6069C4.14048 27.3568 4 27.0177 4 26.664V19.3334ZM5.33333 19.3334V26.664H7.33333V19.334L5.33333 19.3334ZM12.866 12.7187L12.8793 12.7054C12.9595 12.6247 13.0044 12.5154 13.004 12.4016C13.0036 12.2879 12.958 12.1789 12.8773 12.0987C12.7966 12.0185 12.6874 11.9737 12.5736 11.9741C12.4598 11.9744 12.3509 12.02 12.2707 12.1007L10.964 13.416C10.84 13.5408 10.6925 13.6398 10.53 13.7073C10.3675 13.7748 10.1933 13.8095 10.0173 13.8094H8.294C8.18031 13.8094 8.07128 13.8545 7.99089 13.9349C7.9105 14.0153 7.86533 14.1244 7.86533 14.238C7.86533 14.3517 7.9105 14.4608 7.99089 14.5412C8.07128 14.6216 8.18031 14.6667 8.294 14.6667H10.134C10.4024 14.6667 10.668 14.6127 10.915 14.5079C11.1621 14.4031 11.3855 14.2497 11.572 14.0567L12.866 12.7187ZM10.018 12.4754H8.29333C7.82593 12.4754 7.37768 12.6611 7.04718 12.9916C6.71667 13.3221 6.531 13.7703 6.531 14.2377C6.531 14.7051 6.71667 15.1534 7.04718 15.4839C7.37768 15.8144 7.82593 16 8.29333 16H10.1333C10.5805 16.0001 11.0232 15.9102 11.4349 15.7357C11.8467 15.5611 12.2191 15.3055 12.53 14.984L13.8233 13.646C14.1529 13.3147 14.3374 12.866 14.3361 12.3987C14.3349 11.9313 14.148 11.4836 13.8167 11.154C13.4853 10.8245 13.0366 10.64 12.5693 10.6413C12.1019 10.6425 11.6542 10.8294 11.3247 11.1607L10.0173 12.4754H10.018ZM21.8267 8.66538C22.0494 8.67168 22.2712 8.63325 22.4788 8.55236C22.6864 8.47147 22.8757 8.34977 23.0355 8.19444C23.1953 8.03911 23.3223 7.85332 23.4091 7.64806C23.4958 7.44279 23.5405 7.22222 23.5405 6.99938C23.5405 6.77654 23.4958 6.55597 23.4091 6.3507C23.3223 6.14544 23.1953 5.95965 23.0355 5.80432C22.8757 5.64899 22.6864 5.52729 22.4788 5.4464C22.2712 5.36551 22.0494 5.32708 21.8267 5.33338C21.393 5.34565 20.9812 5.52656 20.6787 5.83765C20.3763 6.14875 20.2071 6.56551 20.2071 6.99938C20.2071 7.43325 20.3763 7.85001 20.6787 8.16111C20.9812 8.4722 21.393 8.65311 21.8267 8.66538ZM24.8267 6.99938C24.8351 7.39858 24.7637 7.79544 24.6168 8.16671C24.4698 8.53797 24.2502 8.87616 23.9709 9.16146C23.6915 9.44676 23.3581 9.67343 22.99 9.82817C22.6219 9.98291 22.2266 10.0626 21.8273 10.0626C21.428 10.0626 21.0328 9.98291 20.6647 9.82817C20.2966 9.67343 19.9631 9.44676 19.6838 9.16146C19.4044 8.87616 19.1848 8.53797 19.0379 8.16671C18.8909 7.79544 18.8196 7.39858 18.828 6.99938C18.8445 6.21486 19.1678 5.46804 19.7285 4.91906C20.2892 4.37007 21.0426 4.06262 21.8273 4.06262C22.612 4.06262 23.3655 4.37007 23.9262 4.91906C24.4869 5.46804 24.8101 6.21486 24.8267 6.99938ZM19.812 15.5294L19.8607 15.5774C20.1541 15.8534 20.5446 16.0024 20.9473 15.992L20.9733 15.994C20.9819 15.9957 20.9906 15.9966 20.9993 15.9967L23.0907 15.994C23.5622 15.9936 24.0143 15.8059 24.3474 15.4721C24.6805 15.1384 24.8674 14.6859 24.867 14.2144C24.8666 13.7428 24.6788 13.2908 24.3451 12.9576C24.0113 12.6245 23.5589 12.4376 23.0873 12.438H21.7833C21.65 12.438 20.6833 11.42 19.9633 10.64C19.7101 10.3645 19.4025 10.1443 19.0601 9.99328C18.7176 9.84229 18.3476 9.76379 17.9733 9.76271H14.736L15.048 15.996H17.1033C17.5194 15.9956 17.9311 15.9115 18.314 15.7487C18.6967 15.5854 19.2833 15.096 19.3313 15.048C19.3767 15.0027 19.7673 15.4754 19.8087 15.5254L19.812 15.5294ZM17.7907 14.5227L17.822 14.506C17.9362 14.4381 18.0468 14.3642 18.1533 14.2847C18.2451 14.2164 18.3349 14.1455 18.4227 14.072C18.876 13.6474 19.4127 13.6967 19.6227 13.7414C19.8413 13.788 19.9967 13.8787 20.0533 13.9127C20.1493 13.9714 20.2392 14.0393 20.322 14.1154C20.4207 14.204 20.5153 14.3067 20.5787 14.3767C20.6493 14.4547 20.7153 14.5314 20.762 14.5867L20.7887 14.6187C20.8025 14.6296 20.8177 14.6386 20.834 14.6454M17.7907 14.5227C17.5727 14.6154 17.3387 14.662 17.102 14.6634H16.316L16.138 11.096H17.9733C18.3493 11.096 18.7167 11.256 18.9833 11.5447C19.3467 11.938 19.7807 12.4007 20.146 12.7694C20.326 12.9514 20.5047 13.126 20.6567 13.262C20.73 13.3267 20.82 13.4047 20.9153 13.4734C20.9613 13.5067 21.036 13.558 21.13 13.6074L21.134 13.6094C21.1887 13.6387 21.4407 13.7714 21.7833 13.7714H23.0873C23.2053 13.7712 23.3184 13.8179 23.402 13.9011C23.4855 13.9844 23.5325 14.0974 23.5327 14.2154C23.5328 14.3333 23.4862 14.4465 23.4029 14.53C23.3196 14.6135 23.2066 14.6605 23.0887 14.6607L21.062 14.6627C21.0238 14.6599 20.9856 14.6586 20.9473 14.6587H20.9127C20.8858 14.6597 20.859 14.6552 20.834 14.6454" fill="#333333"/>
</svg>
