<svg width="25" height="24" viewBox="0 0 25 24" fill="none" xmlns="http://www.w3.org/2000/svg">
<path fill-rule="evenodd" clip-rule="evenodd" d="M4.30638 6.20635C5.20651 5.30649 6.42719 4.80097 7.69998 4.80097C8.97276 4.80097 10.1934 5.30649 11.0936 6.20635L12.5 7.61155L13.9064 6.20635C14.3492 5.7479 14.8788 5.38223 15.4644 5.13066C16.0501 4.8791 16.6799 4.74669 17.3173 4.74115C17.9546 4.73561 18.5867 4.85706 19.1766 5.09841C19.7665 5.33975 20.3024 5.69617 20.7531 6.14685C21.2038 6.59754 21.5602 7.13347 21.8015 7.72337C22.0429 8.31327 22.1643 8.94533 22.1588 9.58268C22.1532 10.22 22.0208 10.8499 21.7693 11.4355C21.5177 12.0211 21.152 12.5508 20.6936 12.9935L12.5 21.1883L4.30638 12.9935C3.40651 12.0934 2.901 10.8727 2.901 9.59995C2.901 8.32716 3.40651 7.10648 4.30638 6.20635Z" fill="white"/>
</svg>
