<svg width="24" height="25" viewBox="0 0 24 25" fill="none" xmlns="http://www.w3.org/2000/svg">
<path d="M12 12.2273C12.55 12.2273 13.021 12.0313 13.413 11.6393C13.8043 11.248 14 10.7773 14 10.2273C14 9.67729 13.8043 9.2063 13.413 8.81429C13.021 8.42296 12.55 8.22729 12 8.22729C11.45 8.22729 10.9793 8.42296 10.588 8.81429C10.196 9.2063 10 9.67729 10 10.2273C10 10.7773 10.196 11.248 10.588 11.6393C10.9793 12.0313 11.45 12.2273 12 12.2273ZM12 22.2273C9.31667 19.944 7.31267 17.823 5.988 15.8643C4.66267 13.9063 4 12.094 4 10.4273C4 7.92729 4.80433 5.93563 6.413 4.45229C8.021 2.96896 9.88333 2.22729 12 2.22729C14.1167 2.22729 15.979 2.96896 17.587 4.45229C19.1957 5.93563 20 7.92729 20 10.4273C20 12.094 19.3377 13.9063 18.013 15.8643C16.6877 17.823 14.6833 19.944 12 22.2273Z" fill="#012A51"/>
</svg>
