<svg width="24" height="25" viewBox="0 0 24 25" fill="none" xmlns="http://www.w3.org/2000/svg">
<path d="M4 20.2273C3.45 20.2273 2.97933 20.0316 2.588 19.6403C2.196 19.2483 2 18.7773 2 18.2273V6.22729C2 5.67729 2.196 5.20663 2.588 4.81529C2.97933 4.42329 3.45 4.22729 4 4.22729H20C20.55 4.22729 21.021 4.42329 21.413 4.81529C21.8043 5.20663 22 5.67729 22 6.22729V18.2273C22 18.7773 21.8043 19.2483 21.413 19.6403C21.021 20.0316 20.55 20.2273 20 20.2273H4ZM12 13.0523C12.0833 13.0523 12.1707 13.0396 12.262 13.0143C12.354 12.9896 12.4417 12.9523 12.525 12.9023L19.6 8.47729C19.7333 8.39396 19.8333 8.28996 19.9 8.1653C19.9667 8.03996 20 7.9023 20 7.7523C20 7.41896 19.8583 7.16896 19.575 7.0023C19.2917 6.83563 19 6.84396 18.7 7.0273L12 11.2273L5.3 7.0273C5 6.84396 4.70833 6.83963 4.425 7.0143C4.14167 7.18963 4 7.43563 4 7.7523C4 7.91896 4.03333 8.06463 4.1 8.18929C4.16667 8.31463 4.26667 8.41063 4.4 8.47729L11.475 12.9023C11.5583 12.9523 11.646 12.9896 11.738 13.0143C11.8293 13.0396 11.9167 13.0523 12 13.0523Z" fill="#012A51"/>
</svg>
