<svg width="24" height="25" viewBox="0 0 24 25" fill="none" xmlns="http://www.w3.org/2000/svg">
<path d="M19.95 21.2273C17.8 21.2273 15.7043 20.748 13.663 19.7893C11.621 18.8313 9.81267 17.5646 8.238 15.9893C6.66267 14.4146 5.396 12.6063 4.438 10.5643C3.47933 8.52296 3 6.4273 3 4.2773C3 3.9773 3.1 3.72729 3.3 3.52729C3.5 3.32729 3.75 3.22729 4.05 3.22729H8.1C8.33333 3.22729 8.54167 3.30229 8.725 3.45229C8.90833 3.60229 9.01667 3.79396 9.05 4.02729L9.7 7.5273C9.73333 7.76063 9.72933 7.97296 9.688 8.16429C9.646 8.35629 9.55 8.52729 9.4 8.67729L7 11.1273C7.7 12.3273 8.575 13.4523 9.625 14.5023C10.675 15.5523 11.8333 16.4606 13.1 17.2273L15.45 14.8773C15.6 14.7273 15.796 14.6146 16.038 14.5393C16.2793 14.4646 16.5167 14.444 16.75 14.4773L20.2 15.1773C20.4333 15.2273 20.625 15.3396 20.775 15.5143C20.925 15.6896 21 15.894 21 16.1273V20.1773C21 20.4773 20.9 20.7273 20.7 20.9273C20.5 21.1273 20.25 21.2273 19.95 21.2273Z" fill="#012A51"/>
</svg>
