<svg width="24" height="25" viewBox="0 0 24 25" fill="none" xmlns="http://www.w3.org/2000/svg">
<path d="M7.8 2.22729H16.2C19.4 2.22729 22 4.8273 22 8.0273V16.4273C22 17.9656 21.3889 19.4408 20.3012 20.5285C19.2135 21.6162 17.7383 22.2273 16.2 22.2273H7.8C4.6 22.2273 2 19.6273 2 16.4273V8.0273C2 6.48904 2.61107 5.01379 3.69878 3.92608C4.78649 2.83836 6.26174 2.22729 7.8 2.22729ZM7.6 4.22729C6.64522 4.22729 5.72955 4.60658 5.05442 5.28171C4.37928 5.95684 4 6.87252 4 7.82729V16.6273C4 18.6173 5.61 20.2273 7.6 20.2273H16.4C17.3548 20.2273 18.2705 19.848 18.9456 19.1729C19.6207 18.4977 20 17.5821 20 16.6273V7.82729C20 5.83729 18.39 4.22729 16.4 4.22729H7.6ZM17.25 5.72729C17.5815 5.72729 17.8995 5.85899 18.1339 6.09341C18.3683 6.32783 18.5 6.64577 18.5 6.97729C18.5 7.30882 18.3683 7.62676 18.1339 7.86118C17.8995 8.0956 17.5815 8.22729 17.25 8.22729C16.9185 8.22729 16.6005 8.0956 16.3661 7.86118C16.1317 7.62676 16 7.30882 16 6.97729C16 6.64577 16.1317 6.32783 16.3661 6.09341C16.6005 5.85899 16.9185 5.72729 17.25 5.72729ZM12 7.22729C13.3261 7.22729 14.5979 7.75408 15.5355 8.69176C16.4732 9.62944 17 10.9012 17 12.2273C17 13.5534 16.4732 14.8251 15.5355 15.7628C14.5979 16.7005 13.3261 17.2273 12 17.2273C10.6739 17.2273 9.40215 16.7005 8.46447 15.7628C7.52678 14.8251 7 13.5534 7 12.2273C7 10.9012 7.52678 9.62944 8.46447 8.69176C9.40215 7.75408 10.6739 7.22729 12 7.22729ZM12 9.22729C11.2044 9.22729 10.4413 9.54337 9.87868 10.106C9.31607 10.6686 9 11.4316 9 12.2273C9 13.0229 9.31607 13.786 9.87868 14.3486C10.4413 14.9112 11.2044 15.2273 12 15.2273C12.7956 15.2273 13.5587 14.9112 14.1213 14.3486C14.6839 13.786 15 13.0229 15 12.2273C15 11.4316 14.6839 10.6686 14.1213 10.106C13.5587 9.54337 12.7956 9.22729 12 9.22729Z" fill="#012A51"/>
</svg>
