<svg width="24" height="25" viewBox="0 0 24 25" fill="none" xmlns="http://www.w3.org/2000/svg">
<path d="M22.46 6.22729C21.69 6.57729 20.86 6.8073 20 6.91729C20.88 6.3873 21.56 5.54729 21.88 4.53729C21.05 5.03729 20.13 5.3873 19.16 5.5873C18.37 4.7273 17.26 4.22729 16 4.22729C13.65 4.22729 11.73 6.14729 11.73 8.51729C11.73 8.8573 11.77 9.1873 11.84 9.4973C8.28004 9.3173 5.11004 7.60729 3.00004 5.01729C2.63004 5.64729 2.42004 6.3873 2.42004 7.16729C2.42004 8.6573 3.17004 9.97729 4.33004 10.7273C3.62004 10.7273 2.96004 10.5273 2.38004 10.2273V10.2573C2.38004 12.3373 3.86004 14.0773 5.82004 14.4673C5.19077 14.6395 4.53013 14.6635 3.89004 14.5373C4.16165 15.3898 4.69358 16.1357 5.41106 16.6702C6.12854 17.2047 6.99549 17.501 7.89004 17.5173C6.37367 18.7177 4.49404 19.3666 2.56004 19.3573C2.22004 19.3573 1.88004 19.3373 1.54004 19.2973C3.44004 20.5173 5.70004 21.2273 8.12004 21.2273C16 21.2273 20.33 14.6873 20.33 9.01729C20.33 8.82729 20.33 8.64729 20.32 8.45729C21.16 7.85729 21.88 7.09729 22.46 6.22729Z" fill="#012A51"/>
</svg>
