<svg width="24" height="25" viewBox="0 0 24 25" fill="none" xmlns="http://www.w3.org/2000/svg">
<path d="M15.4163 11.6029L10.9163 8.60292C10.8033 8.52755 10.6719 8.48426 10.5363 8.47769C10.4006 8.47112 10.2657 8.5015 10.146 8.56561C10.0263 8.62971 9.9262 8.72512 9.85645 8.84166C9.7867 8.9582 9.74991 9.09149 9.75 9.2273V15.2273C9.74991 15.3631 9.7867 15.4964 9.85645 15.6129C9.9262 15.7295 10.0263 15.8249 10.146 15.889C10.2657 15.9531 10.4006 15.9835 10.5363 15.9769C10.6719 15.9703 10.8033 15.9271 10.9163 15.8517L15.4163 12.8517C15.5191 12.7832 15.6035 12.6904 15.6618 12.5815C15.7202 12.4725 15.7507 12.3509 15.7507 12.2273C15.7507 12.1037 15.7202 11.9821 15.6618 11.8731C15.6035 11.7642 15.5191 11.6714 15.4163 11.6029ZM11.25 13.8257V10.6335L13.6481 12.2273L11.25 13.8257ZM21.9684 6.7448C21.8801 6.39919 21.7109 6.07953 21.4747 5.8122C21.2385 5.54488 20.9421 5.33754 20.61 5.2073C17.3962 3.96605 12.2812 3.9773 12 3.9773C11.7188 3.9773 6.60375 3.96605 3.39 5.2073C3.0579 5.33754 2.76153 5.54488 2.52534 5.8122C2.28915 6.07953 2.1199 6.39919 2.03156 6.7448C1.78875 7.68042 1.5 9.39042 1.5 12.2273C1.5 15.0642 1.78875 16.7742 2.03156 17.7098C2.11977 18.0556 2.28895 18.3754 2.52515 18.6429C2.76136 18.9104 3.0578 19.1179 3.39 19.2482C6.46875 20.436 11.2875 20.4773 11.9381 20.4773H12.0619C12.7125 20.4773 17.5341 20.436 20.61 19.2482C20.9422 19.1179 21.2386 18.9104 21.4748 18.6429C21.711 18.3754 21.8802 18.0556 21.9684 17.7098C22.2113 16.7723 22.5 15.0642 22.5 12.2273C22.5 9.39042 22.2113 7.68042 21.9684 6.7448ZM20.5163 17.3385C20.4877 17.4536 20.4323 17.5602 20.3545 17.6496C20.2768 17.7391 20.179 17.8089 20.0691 17.8532C17.1019 18.9989 12.0553 18.9782 12.0066 18.9782H12C11.9494 18.9782 6.90656 18.997 3.9375 17.8532C3.8276 17.8089 3.72977 17.7391 3.65204 17.6496C3.57431 17.5602 3.51888 17.4536 3.49031 17.3385C3.2625 16.4826 3 14.9057 3 12.2273C3 9.54886 3.2625 7.97199 3.48375 7.12074C3.51179 7.00503 3.56697 6.89766 3.64473 6.80751C3.7225 6.71736 3.8206 6.64702 3.93094 6.6023C6.79219 5.49699 11.5866 5.4773 11.9794 5.4773H12.0047C12.0553 5.4773 17.1028 5.46042 20.0672 6.6023C20.1771 6.64665 20.2749 6.71642 20.3526 6.80589C20.4304 6.89535 20.4858 7.00197 20.5144 7.11699C20.7375 7.97199 21 9.54886 21 12.2273C21 14.9057 20.7375 16.4826 20.5163 17.3339V17.3385Z" fill="#012A51"/>
</svg>
