<svg width="16" height="22" viewBox="0 0 16 22" fill="none" xmlns="http://www.w3.org/2000/svg">
<path d="M10.9999 21L10.5839 21.624C10.6969 21.6993 10.8282 21.7425 10.9637 21.7491C11.0993 21.7556 11.2341 21.7253 11.3538 21.6612C11.4735 21.5972 11.5736 21.5019 11.6433 21.3854C11.7131 21.269 11.7499 21.1358 11.7499 21H10.9999ZM7.99995 19L8.41595 18.376C8.29275 18.2939 8.14801 18.2501 7.99995 18.2501C7.85189 18.2501 7.70714 18.2939 7.58395 18.376L7.99995 19ZM4.99995 21H4.24995C4.24996 21.1358 4.28681 21.269 4.35657 21.3854C4.42633 21.5019 4.52638 21.5972 4.64606 21.6612C4.76575 21.7253 4.90057 21.7556 5.03615 21.7491C5.17174 21.7425 5.303 21.6993 5.41595 21.624L4.99995 21ZM11.4159 20.376L8.41595 18.376L7.58395 19.624L10.5839 21.624L11.4159 20.376ZM7.58395 18.376L4.58395 20.376L5.41595 21.624L8.41595 19.624L7.58395 18.376ZM8.95195 2.27602L8.99395 2.32602L10.1369 1.35402L10.0939 1.30402L8.95195 2.27602ZM11.3089 3.28502L11.3739 3.27902L11.2539 1.78402L11.1889 1.79002L11.3089 3.28502ZM12.7209 4.62502L12.7149 4.69102L14.2099 4.81102L14.2159 4.74602L12.7209 4.62502ZM13.6739 7.00502L13.7239 7.04802L14.6959 5.90602L14.6459 5.86302L13.6739 7.00502ZM13.7239 8.95202L13.6739 8.99402L14.6459 10.137L14.6959 10.094L13.7239 8.95202ZM12.7149 11.309L12.7209 11.374L14.2159 11.254L14.2099 11.189L12.7149 11.309ZM11.3749 12.721L11.3089 12.715L11.1889 14.21L11.2539 14.216L11.3749 12.721ZM8.99495 13.674L8.95195 13.724L10.0939 14.696L10.1369 14.646L8.99495 13.674ZM7.04795 13.724L7.00495 13.674L5.86295 14.646L5.90595 14.696L7.04795 13.724ZM4.69095 12.715L4.62595 12.72L4.74595 14.216L4.81095 14.211L4.69095 12.715ZM3.27895 11.375L3.28495 11.309L1.78995 11.189L1.78395 11.254L3.27895 11.375ZM2.32595 8.99502L2.27595 8.95202L1.30395 10.094L1.35395 10.137L2.32595 8.99502ZM2.27595 7.04802L2.32595 7.00502L1.35395 5.86302L1.30395 5.90602L2.27595 7.04802ZM3.28495 4.69102L3.27895 4.62602L1.78395 4.74602L1.78995 4.81102L3.28495 4.69102ZM4.62495 3.27902L4.69095 3.28502L4.81095 1.79002L4.74595 1.78402L4.62495 3.27902ZM7.00495 2.32602L7.04795 2.27602L5.90595 1.30402L5.86295 1.35402L7.00495 2.32602ZM4.69095 3.28502C5.12528 3.31985 5.56167 3.25097 5.96416 3.08407C6.36665 2.91716 6.72372 2.657 7.00595 2.32502L5.86295 1.35402C5.73465 1.50482 5.57238 1.62298 5.38948 1.69878C5.20658 1.77458 5.0083 1.80585 4.81095 1.79002L4.69095 3.28502ZM3.27895 4.62602C3.2646 4.44558 3.28961 4.26317 3.35226 4.09334C3.41491 3.9235 3.51369 3.76931 3.64179 3.6414C3.76988 3.5135 3.92423 3.41494 4.09415 3.35255C4.26407 3.29015 4.44552 3.26541 4.62595 3.28002L4.74595 1.78502C4.34885 1.75303 3.94954 1.80769 3.57565 1.94522C3.20176 2.08276 2.86222 2.29989 2.58052 2.5816C2.29882 2.8633 2.08169 3.20284 1.94415 3.57673C1.80661 3.95062 1.75195 4.34993 1.78395 4.74702L3.27895 4.62602ZM2.32595 7.00502C2.6576 6.7228 2.91748 6.36585 3.08421 5.96355C3.25093 5.56125 3.31973 5.12511 3.28495 4.69102L1.78995 4.81102C1.82195 5.21102 1.65995 5.60302 1.35395 5.86302L2.32595 7.00502ZM2.27595 8.95202C2.13804 8.83468 2.02727 8.68877 1.95131 8.52439C1.87535 8.36002 1.83601 8.1811 1.83601 8.00002C1.83601 7.81895 1.87535 7.64003 1.95131 7.47566C2.02727 7.31128 2.13804 7.16537 2.27595 7.04802L1.30395 5.90602C1.00068 6.16419 0.757116 6.48514 0.590086 6.84669C0.423055 7.20824 0.336548 7.60176 0.336548 8.00002C0.336548 8.39829 0.423055 8.79181 0.590086 9.15336C0.757116 9.5149 1.00068 9.83586 1.30395 10.094L2.27595 8.95202ZM3.28495 11.309C3.31978 10.8747 3.2509 10.4383 3.08399 10.0358C2.91708 9.63332 2.65692 9.27625 2.32495 8.99402L1.35395 10.137C1.65995 10.397 1.82195 10.789 1.78995 11.189L3.28495 11.309ZM4.62495 12.721C4.44442 12.7355 4.2629 12.7106 4.09294 12.648C3.92299 12.5855 3.76866 12.4867 3.64065 12.3586C3.51263 12.2305 3.41398 12.0761 3.35153 11.9061C3.28908 11.7361 3.26431 11.5545 3.27895 11.374L1.78395 11.254C1.75195 11.6511 1.80661 12.0504 1.94415 12.4243C2.08169 12.7982 2.29882 13.1378 2.58052 13.4195C2.86222 13.7012 3.20176 13.9183 3.57565 14.0558C3.94954 14.1934 4.34885 14.248 4.74595 14.216L4.62495 12.721ZM8.95195 13.724C8.8346 13.8619 8.68869 13.9727 8.52432 14.0487C8.35994 14.1246 8.18103 14.164 7.99995 14.164C7.81887 14.164 7.63995 14.1246 7.47558 14.0487C7.3112 13.9727 7.1653 13.8619 7.04795 13.724L5.90595 14.696C6.16411 14.9993 6.48507 15.2429 6.84662 15.4099C7.20816 15.5769 7.60168 15.6634 7.99995 15.6634C8.39822 15.6634 8.79173 15.5769 9.15328 15.4099C9.51483 15.2429 9.83578 14.9993 10.0939 14.696L8.95195 13.724ZM12.7209 11.374C12.7354 11.5546 12.7105 11.7361 12.648 11.906C12.5854 12.076 12.4866 12.2303 12.3585 12.3583C12.2304 12.4863 12.076 12.585 11.906 12.6474C11.736 12.7099 11.5545 12.7347 11.3739 12.72L11.2539 14.216C11.651 14.248 12.0504 14.1934 12.4242 14.0558C12.7981 13.9183 13.1377 13.7012 13.4194 13.4195C13.7011 13.1378 13.9182 12.7982 14.0557 12.4243C14.1933 12.0504 14.2479 11.6511 14.2159 11.254L12.7209 11.374ZM13.6739 8.99402C13.3422 9.27635 13.0822 9.63346 12.9155 10.0359C12.7487 10.4384 12.68 10.8748 12.7149 11.309L14.2099 11.189C14.1779 10.789 14.3399 10.397 14.6459 10.137L13.6739 8.99402ZM13.7239 7.04802C13.8619 7.16537 13.9726 7.31128 14.0486 7.47566C14.1245 7.64003 14.1639 7.81895 14.1639 8.00002C14.1639 8.1811 14.1245 8.36002 14.0486 8.52439C13.9726 8.68877 13.8619 8.83468 13.7239 8.95202L14.6959 10.094C14.9992 9.83586 15.2428 9.5149 15.4098 9.15336C15.5768 8.79181 15.6633 8.39829 15.6633 8.00002C15.6633 7.60176 15.5768 7.20824 15.4098 6.84669C15.2428 6.48514 14.9992 6.16419 14.6959 5.90602L13.7239 7.04802ZM12.7149 4.69102C12.6801 5.12536 12.749 5.56175 12.9159 5.96424C13.0828 6.36673 13.343 6.7238 13.6749 7.00602L14.6459 5.86302C14.4952 5.73473 14.377 5.57246 14.3012 5.38956C14.2254 5.20666 14.1941 5.00837 14.2099 4.81102L12.7149 4.69102ZM11.3749 3.27902C11.5555 3.26452 11.737 3.28942 11.907 3.352C12.0769 3.41458 12.2312 3.51334 12.3592 3.64146C12.4873 3.76957 12.5859 3.92397 12.6484 4.09397C12.7108 4.26397 12.7356 4.44451 12.7209 4.62502L14.2159 4.74602C14.2479 4.34893 14.1933 3.94962 14.0557 3.57573C13.9182 3.20184 13.7011 2.8623 13.4194 2.5806C13.1377 2.29889 12.7981 2.08176 12.4242 1.94422C12.0504 1.80669 11.651 1.75203 11.2539 1.78402L11.3749 3.27902ZM8.99395 2.32602C9.27617 2.65767 9.63412 2.91756 10.0364 3.08428C10.4387 3.25101 10.8749 3.31981 11.3089 3.28502L11.1889 1.79002C10.9916 1.80585 10.7933 1.77458 10.6104 1.69878C10.4275 1.62298 10.2652 1.50482 10.1369 1.35402L8.99395 2.32602ZM10.0949 1.30402C9.83679 1.00042 9.51572 0.756552 9.15398 0.58931C8.79224 0.422069 8.39848 0.335449 7.99995 0.335449C7.60142 0.335449 7.20765 0.422069 6.84591 0.58931C6.48418 0.756552 6.16311 1.00042 5.90495 1.30402L7.04795 2.27602C7.1653 2.13812 7.3112 2.02735 7.47558 1.95139C7.63995 1.87543 7.81887 1.83608 7.99995 1.83608C8.18103 1.83608 8.35994 1.87543 8.52432 1.95139C8.68869 2.02735 8.8346 2.13812 8.95195 2.27602L10.0949 1.30402ZM7.00495 13.674C6.76014 13.3864 6.4587 13.1522 6.11942 12.9862C5.78014 12.8202 5.4103 12.7258 5.03295 12.709L4.96695 14.208C5.31095 14.223 5.63695 14.38 5.86295 14.646L7.00495 13.674ZM5.03295 12.709C4.91893 12.704 4.80471 12.706 4.69095 12.715L4.81095 14.21C4.86284 14.2059 4.91496 14.2052 4.96695 14.208L5.03295 12.709ZM5.74995 21V13.458H4.24995V21H5.74995ZM11.3099 12.715C11.1958 12.7059 11.0813 12.7039 10.9669 12.709L11.0329 14.208C11.0849 14.2052 11.1371 14.2059 11.1889 14.21L11.3099 12.715ZM10.9669 12.709C10.5894 12.7257 10.2194 12.82 9.87993 12.986C9.54046 13.152 9.23986 13.3862 8.99495 13.674L10.1369 14.646C10.2482 14.5154 10.3852 14.4091 10.5394 14.3338C10.6935 14.2584 10.8615 14.2156 11.0329 14.208L10.9669 12.709ZM10.2499 13.459V21H11.7499V13.458L10.2499 13.459Z" fill="#333333"/>
<path d="M10 7L7 10L6 9" stroke="#333333" stroke-width="1.5" stroke-linecap="round" stroke-linejoin="round"/>
</svg>
