<svg width="24" height="16" viewBox="0 0 24 16" fill="none" xmlns="http://www.w3.org/2000/svg">
<path d="M10.9922 10.805C11.9974 10.1358 12.7606 9.16091 13.1688 8.02445C13.5771 6.88798 13.6088 5.6503 13.2592 4.49443C12.9096 3.33856 12.1974 2.32587 11.2278 1.60611C10.2581 0.886355 9.08262 0.497742 7.87505 0.497742C6.66747 0.497742 5.49196 0.886355 4.52233 1.60611C3.55271 2.32587 2.84045 3.33856 2.49088 4.49443C2.14132 5.6503 2.17301 6.88798 2.58126 8.02445C2.98952 9.16091 3.75267 10.1358 4.75786 10.805C2.93957 11.4752 1.38671 12.7153 0.330984 14.3403C0.275499 14.4228 0.236959 14.5155 0.217604 14.613C0.198249 14.7105 0.198466 14.8108 0.218241 14.9082C0.238017 15.0056 0.276957 15.0981 0.332798 15.1804C0.388639 15.2626 0.460266 15.3329 0.543518 15.3872C0.626769 15.4415 0.719983 15.4787 0.817742 15.4967C0.9155 15.5146 1.01585 15.513 1.11297 15.4918C1.21008 15.4706 1.30202 15.4304 1.38344 15.3734C1.46486 15.3164 1.53413 15.2437 1.58723 15.1597C2.26822 14.1123 3.20007 13.2516 4.29814 12.6558C5.39622 12.06 6.62574 11.7479 7.87505 11.7479C9.12436 11.7479 10.3539 12.06 11.452 12.6558C12.55 13.2516 13.4819 14.1123 14.1629 15.1597C14.2729 15.3232 14.4428 15.4368 14.6359 15.476C14.829 15.5152 15.0298 15.4769 15.1949 15.3692C15.3599 15.2616 15.476 15.0933 15.5179 14.9008C15.5599 14.7082 15.5244 14.5069 15.4191 14.3403C14.3634 12.7153 12.8105 11.4752 10.9922 10.805ZM3.75005 6.12502C3.75005 5.30918 3.99197 4.51165 4.44523 3.8333C4.8985 3.15494 5.54273 2.62623 6.29648 2.31402C7.05022 2.00181 7.87962 1.92012 8.67979 2.07929C9.47997 2.23845 10.215 2.63132 10.7919 3.20821C11.3688 3.7851 11.7616 4.5201 11.9208 5.32028C12.0799 6.12045 11.9983 6.94985 11.686 7.70359C11.3738 8.45734 10.8451 9.10157 10.1668 9.55484C9.48842 10.0081 8.69089 10.25 7.87505 10.25C6.78141 10.2488 5.73292 9.81379 4.9596 9.04047C4.18628 8.26715 3.75129 7.21866 3.75005 6.12502ZM23.4507 15.3781C23.2841 15.4868 23.0812 15.5248 22.8865 15.4838C22.6919 15.4429 22.5215 15.3263 22.4129 15.1597C21.7327 14.1117 20.801 13.2506 19.7027 12.6551C18.6044 12.0595 17.3744 11.7484 16.125 11.75C15.9261 11.75 15.7354 11.671 15.5947 11.5304C15.4541 11.3897 15.375 11.1989 15.375 11C15.375 10.8011 15.4541 10.6103 15.5947 10.4697C15.7354 10.329 15.9261 10.25 16.125 10.25C16.7325 10.2495 17.3324 10.1147 17.8817 9.85544C18.4311 9.59617 18.9164 9.21876 19.303 8.75019C19.6896 8.28161 19.9679 7.73343 20.1181 7.14481C20.2683 6.5562 20.2866 5.94168 20.1718 5.34516C20.0569 4.74865 19.8117 4.18486 19.4537 3.69408C19.0958 3.20331 18.6338 2.79766 18.1008 2.50612C17.5679 2.21458 16.9771 2.04435 16.3708 2.00759C15.7644 1.97082 15.1574 2.06844 14.5932 2.29346C14.5012 2.33323 14.4021 2.35416 14.3019 2.35501C14.2017 2.35585 14.1023 2.3366 14.0096 2.29839C13.917 2.26018 13.8329 2.20379 13.7624 2.13254C13.6919 2.06129 13.6364 1.97664 13.5992 1.88358C13.562 1.79052 13.5438 1.69094 13.5457 1.59073C13.5476 1.49052 13.5696 1.39171 13.6103 1.30014C13.6511 1.20856 13.7098 1.12609 13.7829 1.05758C13.8561 0.989071 13.9422 0.935923 14.0363 0.901274C15.3277 0.386259 16.764 0.367726 18.0682 0.849249C19.3725 1.33077 20.4522 2.27823 21.099 3.50885C21.7459 4.73947 21.9141 6.16605 21.5713 7.51338C21.2284 8.86072 20.3987 10.0333 19.2422 10.805C21.0605 11.4752 22.6134 12.7153 23.6691 14.3403C23.7777 14.5069 23.8158 14.7099 23.7748 14.9045C23.7338 15.0991 23.6172 15.2695 23.4507 15.3781Z" fill="#333333"/>
</svg>
